<svg width="160" height="24" viewBox="0 0 160 24" fill="none" xmlns="http://www.w3.org/2000/svg">
<path d="M39.02 21.386C38.586 21.75 38.033 22.023 37.361 22.205C36.689 22.401 35.898 22.499 34.988 22.499H27.911C27.575 22.499 27.33 22.422 27.176 22.268C27.022 22.114 26.945 21.869 26.945 21.533V7.925C26.945 7.743 26.966 7.589 27.008 7.463C27.064 7.337 27.141 7.232 27.239 7.148L29.948 4.859C30.018 4.803 30.109 4.761 30.221 4.733C30.347 4.691 30.48 4.67 30.62 4.67H37.697C39.531 4.67 40.882 5.041 41.75 5.783C42.632 6.525 43.073 7.652 43.073 9.164V15.716C43.073 16.472 42.961 17.137 42.737 17.711C42.513 18.271 42.184 18.74 41.75 19.118L39.02 21.386ZM37.697 20C39.447 20 40.742 19.65 41.582 18.95C42.436 18.25 42.863 17.172 42.863 15.716V9.164C42.863 7.708 42.436 6.63 41.582 5.93C40.742 5.23 39.447 4.88 37.697 4.88H30.62C30.354 4.88 30.158 4.943 30.032 5.069C29.92 5.181 29.864 5.37 29.864 5.636V19.244C29.864 19.51 29.92 19.706 30.032 19.832C30.158 19.944 30.354 20 30.62 20H37.697ZM32.153 18.11V6.77H37.235C37.949 6.77 38.523 6.847 38.957 7.001C39.405 7.155 39.748 7.365 39.986 7.631C40.224 7.883 40.385 8.191 40.469 8.555C40.553 8.905 40.595 9.283 40.595 9.689V15.254C40.595 15.66 40.553 16.038 40.469 16.388C40.399 16.738 40.245 17.039 40.007 17.291C39.769 17.543 39.426 17.746 38.978 17.9C38.53 18.04 37.949 18.11 37.235 18.11H32.153ZM37.235 6.98H32.363V17.9H37.235C37.907 17.9 38.446 17.837 38.852 17.711C39.272 17.571 39.594 17.389 39.818 17.165C40.042 16.927 40.189 16.647 40.259 16.325C40.343 15.989 40.385 15.632 40.385 15.254V9.689C40.385 9.311 40.343 8.954 40.259 8.618C40.175 8.282 40.021 7.995 39.797 7.757C39.573 7.519 39.251 7.33 38.831 7.19C38.425 7.05 37.893 6.98 37.235 6.98ZM34.631 8.891H37.13C37.466 8.891 37.711 8.975 37.865 9.143C38.033 9.297 38.117 9.549 38.117 9.899V15.002C38.117 15.352 38.033 15.611 37.865 15.779C37.711 15.947 37.466 16.031 37.13 16.031H34.631V8.891ZM35.198 12.188C35.198 12.006 35.17 11.852 35.114 11.726C35.058 11.6 34.967 11.509 34.841 11.453V15.821H35.198V12.188ZM54.2808 22.499H45.3348C44.9988 22.499 44.7538 22.422 44.5998 22.268C44.4458 22.114 44.3688 21.869 44.3688 21.533V19.034C44.3688 18.852 44.3898 18.698 44.4318 18.572C44.4878 18.446 44.5648 18.341 44.6628 18.257L47.2038 16.115V11.432H45.3348C44.9988 11.432 44.7538 11.355 44.5998 11.201C44.4458 11.047 44.3688 10.802 44.3688 10.466V7.925C44.3688 7.743 44.3898 7.589 44.4318 7.463C44.4878 7.337 44.5648 7.232 44.6628 7.148L47.3718 4.859C47.4418 4.803 47.5328 4.761 47.6448 4.733C47.7708 4.691 47.9038 4.67 48.0438 4.67H56.9898C57.3258 4.67 57.5708 4.747 57.7248 4.901C57.8788 5.055 57.9558 5.3 57.9558 5.636V8.177C57.9558 8.359 57.9278 8.513 57.8718 8.639C57.8298 8.765 57.7598 8.87 57.6618 8.954L55.1628 11.054V15.779H56.9898C57.3258 15.779 57.5708 15.856 57.7248 16.01C57.8788 16.164 57.9558 16.409 57.9558 16.745V19.244C57.9558 19.426 57.9278 19.58 57.8718 19.706C57.8298 19.832 57.7598 19.937 57.6618 20.021L54.9318 22.289C54.8758 22.345 54.7848 22.394 54.6588 22.436C54.5468 22.478 54.4208 22.499 54.2808 22.499ZM48.0438 20H56.9898C57.2558 20 57.4448 19.944 57.5568 19.832C57.6828 19.706 57.7458 19.51 57.7458 19.244V16.745C57.7458 16.479 57.6828 16.29 57.5568 16.178C57.4448 16.052 57.2558 15.989 56.9898 15.989H54.9528V8.933H56.9898C57.2558 8.933 57.4448 8.877 57.5568 8.765C57.6828 8.639 57.7458 8.443 57.7458 8.177V5.636C57.7458 5.37 57.6828 5.181 57.5568 5.069C57.4448 4.943 57.2558 4.88 56.9898 4.88H48.0438C47.7778 4.88 47.5818 4.943 47.4558 5.069C47.3438 5.181 47.2878 5.37 47.2878 5.636V8.177C47.2878 8.443 47.3438 8.639 47.4558 8.765C47.5818 8.877 47.7778 8.933 48.0438 8.933H50.1228V15.989H48.0438C47.7778 15.989 47.5818 16.052 47.4558 16.178C47.3438 16.29 47.2878 16.479 47.2878 16.745V19.244C47.2878 19.51 47.3438 19.706 47.4558 19.832C47.5818 19.944 47.7778 20 48.0438 20ZM55.8558 18.11H49.1778V17.9H52.4328V6.98H49.1778V6.77H55.8558V6.98H52.6428V17.9H55.8558V18.11ZM64.6984 18.11V6.77H64.9084V12.335H72.9724V6.77H73.1824V18.11H72.9724V12.545H64.9084V18.11H64.6984ZM66.4414 20C66.7074 20 66.8964 19.944 67.0084 19.832C67.1344 19.706 67.1974 19.51 67.1974 19.244V14.582H70.7044V19.244C70.7044 19.51 70.7604 19.706 70.8724 19.832C70.9984 19.944 71.1944 20 71.4604 20H74.7154C74.9814 20 75.1704 19.944 75.2824 19.832C75.4084 19.706 75.4714 19.51 75.4714 19.244V5.636C75.4714 5.37 75.4084 5.181 75.2824 5.069C75.1704 4.943 74.9814 4.88 74.7154 4.88H71.4604C71.1944 4.88 70.9984 4.943 70.8724 5.069C70.7604 5.181 70.7044 5.37 70.7044 5.636V10.193H67.1974V5.636C67.1974 5.37 67.1344 5.181 67.0084 5.069C66.8964 4.943 66.7074 4.88 66.4414 4.88H63.1864C62.9204 4.88 62.7244 4.943 62.5984 5.069C62.4864 5.181 62.4304 5.37 62.4304 5.636V19.244C62.4304 19.51 62.4864 19.706 62.5984 19.832C62.7244 19.944 62.9204 20 63.1864 20H66.4414ZM67.1134 20.021L64.3834 22.289C64.3274 22.345 64.2364 22.394 64.1104 22.436C63.9984 22.478 63.8724 22.499 63.7324 22.499H60.4774C60.1414 22.499 59.8964 22.422 59.7424 22.268C59.5884 22.114 59.5114 21.869 59.5114 21.533V7.925C59.5114 7.743 59.5324 7.589 59.5744 7.463C59.6304 7.337 59.7074 7.232 59.8054 7.148L62.5144 4.859C62.5844 4.803 62.6754 4.761 62.7874 4.733C62.9134 4.691 63.0464 4.67 63.1864 4.67H66.4414C66.7774 4.67 67.0224 4.747 67.1764 4.901C67.3304 5.055 67.4074 5.3 67.4074 5.636V9.983H67.7854V7.925C67.7854 7.743 67.8064 7.589 67.8484 7.463C67.9044 7.337 67.9814 7.232 68.0794 7.148L70.7884 4.859C70.8584 4.803 70.9494 4.761 71.0614 4.733C71.1874 4.691 71.3204 4.67 71.4604 4.67H74.7154C75.0514 4.67 75.2964 4.747 75.4504 4.901C75.6044 5.055 75.6814 5.3 75.6814 5.636V19.244C75.6814 19.426 75.6534 19.58 75.5974 19.706C75.5554 19.832 75.4854 19.937 75.3874 20.021L72.6574 22.289C72.6014 22.345 72.5104 22.394 72.3844 22.436C72.2724 22.478 72.1464 22.499 72.0064 22.499H68.7514C68.4154 22.499 68.1704 22.422 68.0164 22.268C67.8624 22.114 67.7854 21.869 67.7854 21.533V17.081H67.4074V19.244C67.4074 19.426 67.3794 19.58 67.3234 19.706C67.2814 19.832 67.2114 19.937 67.1134 20.021ZM88.2683 22.499H78.5243C78.1883 22.499 77.9433 22.422 77.7893 22.268C77.6353 22.114 77.5583 21.869 77.5583 21.533V7.925C77.5583 7.743 77.5793 7.589 77.6213 7.463C77.6773 7.337 77.7543 7.232 77.8523 7.148L80.5613 4.859C80.6313 4.803 80.7223 4.761 80.8343 4.733C80.9603 4.691 81.0933 4.67 81.2333 4.67H90.9773C91.3133 4.67 91.5583 4.747 91.7123 4.901C91.8663 5.055 91.9433 5.3 91.9433 5.636V8.093C91.9433 8.275 91.9153 8.429 91.8593 8.555C91.8173 8.681 91.7473 8.786 91.6493 8.87L89.8433 10.361C89.9833 10.431 90.0813 10.536 90.1373 10.676C90.2073 10.816 90.2423 10.998 90.2423 11.222V13.469C90.2423 13.651 90.2143 13.805 90.1583 13.931C90.1163 14.057 90.0463 14.162 89.9483 14.246L88.0793 15.821H90.9773C91.3133 15.821 91.5583 15.898 91.7123 16.052C91.8663 16.206 91.9433 16.451 91.9433 16.787V19.244C91.9433 19.426 91.9153 19.58 91.8593 19.706C91.8173 19.832 91.7473 19.937 91.6493 20.021L88.9193 22.289C88.8633 22.345 88.7723 22.394 88.6463 22.436C88.5343 22.478 88.4083 22.499 88.2683 22.499ZM90.9773 20C91.2433 20 91.4323 19.944 91.5443 19.832C91.6703 19.706 91.7333 19.51 91.7333 19.244V16.787C91.7333 16.521 91.6703 16.332 91.5443 16.22C91.4323 16.094 91.2433 16.031 90.9773 16.031H85.1813V14.225H89.2763C89.5423 14.225 89.7313 14.169 89.8433 14.057C89.9693 13.931 90.0323 13.735 90.0323 13.469V11.222C90.0323 10.956 89.9693 10.767 89.8433 10.655C89.7313 10.529 89.5423 10.466 89.2763 10.466H85.1813V8.849H90.9773C91.2433 8.849 91.4323 8.793 91.5443 8.681C91.6703 8.555 91.7333 8.359 91.7333 8.093V5.636C91.7333 5.37 91.6703 5.181 91.5443 5.069C91.4323 4.943 91.2433 4.88 90.9773 4.88H81.2333C80.9673 4.88 80.7713 4.943 80.6453 5.069C80.5333 5.181 80.4773 5.37 80.4773 5.636V19.244C80.4773 19.51 80.5333 19.706 80.6453 19.832C80.7713 19.944 80.9673 20 81.2333 20H90.9773ZM89.8433 17.9V18.11H82.7663V6.77H89.8433V6.98H82.9763V12.251H88.1423V12.461H82.9763V17.9H89.8433ZM105.045 22.499H94.3563C94.0203 22.499 93.7753 22.422 93.6213 22.268C93.4673 22.114 93.3903 21.869 93.3903 21.533V7.925C93.3903 7.743 93.4113 7.589 93.4533 7.463C93.5093 7.337 93.5863 7.232 93.6843 7.148L96.3933 4.859C96.4633 4.803 96.5543 4.761 96.6663 4.733C96.7923 4.691 96.9253 4.67 97.0653 4.67H100.32C100.656 4.67 100.901 4.747 101.055 4.901C101.209 5.055 101.286 5.3 101.286 5.636V14.183L101.328 14.141L104.037 11.852C104.107 11.796 104.198 11.754 104.31 11.726C104.436 11.684 104.569 11.663 104.709 11.663H107.754C108.09 11.663 108.335 11.74 108.489 11.894C108.643 12.048 108.72 12.293 108.72 12.629V19.244C108.72 19.426 108.692 19.58 108.636 19.706C108.594 19.832 108.524 19.937 108.426 20.021L105.696 22.289C105.64 22.345 105.549 22.394 105.423 22.436C105.311 22.478 105.185 22.499 105.045 22.499ZM107.754 20C108.02 20 108.209 19.944 108.321 19.832C108.447 19.706 108.51 19.51 108.51 19.244V12.629C108.51 12.363 108.447 12.174 108.321 12.062C108.209 11.936 108.02 11.873 107.754 11.873H104.709C104.443 11.873 104.247 11.936 104.121 12.062C104.009 12.174 103.953 12.363 103.953 12.629V16.031H101.076V5.636C101.076 5.37 101.013 5.181 100.887 5.069C100.775 4.943 100.586 4.88 100.32 4.88H97.0653C96.7993 4.88 96.6033 4.943 96.4773 5.069C96.3653 5.181 96.3093 5.37 96.3093 5.636V19.244C96.3093 19.51 96.3653 19.706 96.4773 19.832C96.6033 19.944 96.7993 20 97.0653 20H107.754ZM98.5983 18.11V6.77H98.8083V17.9H106.116V13.763H106.326V18.11H98.5983ZM114.305 22.499H111.05C110.714 22.499 110.469 22.422 110.315 22.268C110.161 22.114 110.084 21.869 110.084 21.533V7.925C110.084 7.743 110.105 7.589 110.147 7.463C110.203 7.337 110.28 7.232 110.378 7.148L113.087 4.859C113.157 4.803 113.248 4.761 113.36 4.733C113.486 4.691 113.619 4.67 113.759 4.67H120.185C121.179 4.67 122.012 4.775 122.684 4.985C123.356 5.195 123.888 5.489 124.28 5.867C124.672 6.245 124.945 6.7 125.099 7.232C125.267 7.764 125.351 8.345 125.351 8.975V11.663C125.351 12.335 125.253 12.951 125.057 13.511C124.875 14.057 124.553 14.526 124.091 14.918L121.361 17.186C121.011 17.48 120.556 17.725 119.996 17.921C119.45 18.103 118.778 18.208 117.98 18.236V19.244C117.98 19.426 117.952 19.58 117.896 19.706C117.854 19.832 117.784 19.937 117.686 20.021L114.956 22.289C114.9 22.345 114.809 22.394 114.683 22.436C114.571 22.478 114.445 22.499 114.305 22.499ZM117.014 20C117.28 20 117.469 19.944 117.581 19.832C117.707 19.706 117.77 19.51 117.77 19.244V15.758H120.185C122.089 15.758 123.391 15.38 124.091 14.624C124.791 13.868 125.141 12.881 125.141 11.663V8.975C125.141 7.757 124.791 6.77 124.091 6.014C123.391 5.258 122.089 4.88 120.185 4.88H113.759C113.493 4.88 113.297 4.943 113.171 5.069C113.059 5.181 113.003 5.37 113.003 5.636V19.244C113.003 19.51 113.059 19.706 113.171 19.832C113.297 19.944 113.493 20 113.759 20H117.014ZM119.891 13.973H115.565V18.11H115.355V6.77H119.891C120.549 6.77 121.081 6.847 121.487 7.001C121.907 7.141 122.229 7.337 122.453 7.589C122.677 7.841 122.831 8.142 122.915 8.492C122.999 8.842 123.041 9.22 123.041 9.626V11.18C123.041 11.586 122.999 11.964 122.915 12.314C122.831 12.65 122.677 12.944 122.453 13.196C122.229 13.434 121.907 13.623 121.487 13.763C121.081 13.903 120.549 13.973 119.891 13.973ZM115.565 13.763H119.891C120.507 13.763 121.004 13.7 121.382 13.574C121.774 13.448 122.075 13.273 122.285 13.049C122.495 12.811 122.635 12.538 122.705 12.23C122.789 11.908 122.831 11.558 122.831 11.18V9.626C122.831 9.248 122.789 8.898 122.705 8.576C122.635 8.254 122.495 7.974 122.285 7.736C122.075 7.498 121.774 7.316 121.382 7.19C121.004 7.05 120.507 6.98 119.891 6.98H115.565V13.763ZM117.728 8.807H119.618C120.024 8.807 120.29 8.912 120.416 9.122C120.542 9.332 120.605 9.57 120.605 9.836V10.949C120.605 11.215 120.542 11.453 120.416 11.663C120.29 11.873 120.024 11.978 119.618 11.978H117.728V8.807ZM137.22 22.499H127.476C127.14 22.499 126.895 22.422 126.741 22.268C126.587 22.114 126.51 21.869 126.51 21.533V7.925C126.51 7.743 126.531 7.589 126.573 7.463C126.629 7.337 126.706 7.232 126.804 7.148L129.513 4.859C129.583 4.803 129.674 4.761 129.786 4.733C129.912 4.691 130.045 4.67 130.185 4.67H139.929C140.265 4.67 140.51 4.747 140.664 4.901C140.818 5.055 140.895 5.3 140.895 5.636V8.093C140.895 8.275 140.867 8.429 140.811 8.555C140.769 8.681 140.699 8.786 140.601 8.87L138.795 10.361C138.935 10.431 139.033 10.536 139.089 10.676C139.159 10.816 139.194 10.998 139.194 11.222V13.469C139.194 13.651 139.166 13.805 139.11 13.931C139.068 14.057 138.998 14.162 138.9 14.246L137.031 15.821H139.929C140.265 15.821 140.51 15.898 140.664 16.052C140.818 16.206 140.895 16.451 140.895 16.787V19.244C140.895 19.426 140.867 19.58 140.811 19.706C140.769 19.832 140.699 19.937 140.601 20.021L137.871 22.289C137.815 22.345 137.724 22.394 137.598 22.436C137.486 22.478 137.36 22.499 137.22 22.499ZM139.929 20C140.195 20 140.384 19.944 140.496 19.832C140.622 19.706 140.685 19.51 140.685 19.244V16.787C140.685 16.521 140.622 16.332 140.496 16.22C140.384 16.094 140.195 16.031 139.929 16.031H134.133V14.225H138.228C138.494 14.225 138.683 14.169 138.795 14.057C138.921 13.931 138.984 13.735 138.984 13.469V11.222C138.984 10.956 138.921 10.767 138.795 10.655C138.683 10.529 138.494 10.466 138.228 10.466H134.133V8.849H139.929C140.195 8.849 140.384 8.793 140.496 8.681C140.622 8.555 140.685 8.359 140.685 8.093V5.636C140.685 5.37 140.622 5.181 140.496 5.069C140.384 4.943 140.195 4.88 139.929 4.88H130.185C129.919 4.88 129.723 4.943 129.597 5.069C129.485 5.181 129.429 5.37 129.429 5.636V19.244C129.429 19.51 129.485 19.706 129.597 19.832C129.723 19.944 129.919 20 130.185 20H139.929ZM138.795 17.9V18.11H131.718V6.77H138.795V6.98H131.928V12.251H137.094V12.461H131.928V17.9H138.795ZM152.317 6.98H147.739V13.049H152.317C153.185 13.049 153.766 12.839 154.06 12.419C154.354 11.999 154.501 11.404 154.501 10.634V9.164C154.501 8.52 154.319 7.995 153.955 7.589C153.605 7.183 153.059 6.98 152.317 6.98ZM150.007 8.66H151.582C151.946 8.66 152.191 8.758 152.317 8.954C152.443 9.136 152.506 9.367 152.506 9.647V10.361C152.506 10.641 152.443 10.879 152.317 11.075C152.191 11.257 151.946 11.348 151.582 11.348H150.007V8.66ZM147.739 18.11H147.529V6.77H152.317C153.129 6.77 153.731 7.001 154.123 7.463C154.515 7.911 154.711 8.478 154.711 9.164V10.613C154.711 11.257 154.627 11.789 154.459 12.209C154.291 12.615 153.955 12.895 153.451 13.049H153.682C154.536 13.049 155.173 13.245 155.593 13.637C156.013 14.015 156.223 14.568 156.223 15.296V18.11H156.013V15.296C156.013 14.61 155.824 14.099 155.446 13.763C155.068 13.413 154.48 13.238 153.682 13.238H147.739V18.11ZM149.251 20C149.517 20 149.706 19.944 149.818 19.832C149.944 19.706 150.007 19.51 150.007 19.244V15.128H152.947C153.241 15.128 153.444 15.205 153.556 15.359C153.682 15.499 153.745 15.723 153.745 16.031V19.244C153.745 19.51 153.801 19.706 153.913 19.832C154.039 19.944 154.235 20 154.501 20H157.756C158.022 20 158.211 19.944 158.323 19.832C158.449 19.706 158.512 19.51 158.512 19.244V14.792C158.512 13.91 158.274 13.203 157.798 12.671C157.336 12.139 156.727 11.831 155.971 11.747C156.405 11.565 156.706 11.271 156.874 10.865C157.056 10.445 157.147 9.941 157.147 9.353V8.387C157.147 7.351 156.846 6.511 156.244 5.867C155.656 5.209 154.578 4.88 153.01 4.88H146.017C145.751 4.88 145.555 4.943 145.429 5.069C145.317 5.181 145.261 5.37 145.261 5.636V19.244C145.261 19.51 145.317 19.706 145.429 19.832C145.555 19.944 145.751 20 146.017 20H149.251ZM149.923 20.021L147.193 22.289C147.137 22.345 147.046 22.394 146.92 22.436C146.808 22.478 146.682 22.499 146.542 22.499H143.308C142.972 22.499 142.727 22.422 142.573 22.268C142.419 22.114 142.342 21.869 142.342 21.533V7.925C142.342 7.743 142.363 7.589 142.405 7.463C142.461 7.337 142.538 7.232 142.636 7.148L145.345 4.859C145.415 4.803 145.506 4.761 145.618 4.733C145.744 4.691 145.877 4.67 146.017 4.67H153.01C154.676 4.67 155.817 5.02 156.433 5.72C157.049 6.406 157.357 7.295 157.357 8.387V9.353C157.357 9.871 157.294 10.326 157.168 10.718C157.042 11.096 156.839 11.404 156.559 11.642H156.538C157.196 11.824 157.721 12.188 158.113 12.734C158.519 13.28 158.722 13.966 158.722 14.792V19.244C158.722 19.426 158.694 19.58 158.638 19.706C158.596 19.832 158.526 19.937 158.428 20.021L155.698 22.289C155.642 22.345 155.551 22.394 155.425 22.436C155.313 22.478 155.187 22.499 155.047 22.499H151.792C151.456 22.499 151.211 22.422 151.057 22.268C150.903 22.114 150.826 21.869 150.826 21.533V18.32C150.826 18.096 150.784 17.928 150.7 17.816C150.616 17.69 150.462 17.627 150.238 17.627H150.217V19.244C150.217 19.426 150.189 19.58 150.133 19.706C150.091 19.832 150.021 19.937 149.923 20.021Z" fill="#4E5CAA"/>
<path d="M16.147 5H2.853C1.82962 5 1 5.82962 1 6.853V20.147C1 21.1704 1.82962 22 2.853 22H16.147C17.1704 22 18 21.1704 18 20.147V6.853C18 5.82962 17.1704 5 16.147 5Z" stroke="#4E5CAA" stroke-width="1.7" stroke-linecap="round" stroke-linejoin="round"/>
<path d="M5.25 5V22" stroke="#4E5CAA" stroke-width="1.7" stroke-linecap="round" stroke-linejoin="round"/>
<path d="M13.75 5V22" stroke="#4E5CAA" stroke-width="1.7" stroke-linecap="round" stroke-linejoin="round"/>
<path d="M1 13.5H18" stroke="#4E5CAA" stroke-width="1.7" stroke-linecap="round" stroke-linejoin="round"/>
<path d="M1 9.25H5.25" stroke="#4E5CAA" stroke-width="1.7" stroke-linecap="round" stroke-linejoin="round"/>
<path d="M1 17.75H5.25" stroke="#4E5CAA" stroke-width="1.7" stroke-linecap="round" stroke-linejoin="round"/>
<path d="M13.75 17.75H18" stroke="#4E5CAA" stroke-width="1.7" stroke-linecap="round" stroke-linejoin="round"/>
<path d="M13.75 9.25H18" stroke="#4E5CAA" stroke-width="1.7" stroke-linecap="round" stroke-linejoin="round"/>
</svg>
